<svg xmlns="http://www.w3.org/2000/svg" viewBox="0 0 180 180">
  <defs>
    <linearGradient id="bg" x1="22" y1="18" x2="160" y2="164" gradientUnits="userSpaceOnUse">
      <stop stop-color="#FFFFFF"/>
      <stop offset="0.6" stop-color="#F6FCFF"/>
      <stop offset="1" stop-color="#EAF4FF"/>
    </linearGradient>
    <linearGradient id="vault" x1="51" y1="55" x2="132" y2="132" gradientUnits="userSpaceOnUse">
      <stop stop-color="#47E2D8"/>
      <stop offset="0.52" stop-color="#16BFD2"/>
      <stop offset="1" stop-color="#2E76D6"/>
    </linearGradient>
    <linearGradient id="cap" x1="58" y1="52" x2="121" y2="93" gradientUnits="userSpaceOnUse">
      <stop stop-color="#FFFFFF"/>
      <stop offset="0.58" stop-color="#DFFBFF"/>
      <stop offset="1" stop-color="#B5ECF8"/>
    </linearGradient>
    <linearGradient id="ring" x1="58" y1="90" x2="122" y2="111" gradientUnits="userSpaceOnUse">
      <stop stop-color="#FFFFFF"/>
      <stop offset="1" stop-color="#A4FFF4"/>
    </linearGradient>
    <filter id="shadow" x="-20%" y="-14%" width="140%" height="146%" color-interpolation-filters="sRGB">
      <feDropShadow dx="0" dy="12" stdDeviation="13" flood-color="#2F6D93" flood-opacity="0.2"/>
    </filter>
  </defs>
  <rect x="9" y="9" width="162" height="162" rx="39" fill="url(#bg)"/>
  <rect x="10" y="10" width="160" height="160" rx="38" fill="none" stroke="#DCEAF5" stroke-width="2"/>
  <g filter="url(#shadow)">
    <path d="M48 80c0-13 84-13 84 0v32c0 13-84 13-84 0V80Z" fill="url(#vault)"/>
    <path d="M48 80c0 13 84 13 84 0s-84-13-84 0Z" fill="url(#cap)" stroke="#B8E7F4" stroke-width="1.5"/>
    <path d="M58 99c16 9 48 9 64 0" fill="none" stroke="#A7FFF4" stroke-width="5" stroke-linecap="round" opacity="0.45"/>
    <path d="M64 86c10 9 42 9 52 0" fill="none" stroke="#FFFFFF" stroke-width="5" stroke-linecap="round" opacity="0.48"/>
    <path d="M67 109h46c7 0 11-3.6 11-9s-4-9-11-9H67" fill="none" stroke="url(#ring)" stroke-width="7" stroke-linecap="round" stroke-linejoin="round"/>
    <path d="M67 109h46c7 0 11-3.6 11-9s-4-9-11-9H67" fill="none" stroke="#0A6D92" stroke-width="2" stroke-linecap="round" stroke-linejoin="round" opacity="0.2"/>
  </g>
</svg>
