<svg xmlns="http://www.w3.org/2000/svg" viewBox="0 0 1200 630">
  <defs>
    <linearGradient id="page" x1="0" y1="0" x2="1" y2="1">
      <stop stop-color="#F8FBFC"/>
      <stop offset="0.6" stop-color="#FFFFFF"/>
      <stop offset="1" stop-color="#F1F8FA"/>
    </linearGradient>
    <linearGradient id="icon-bg" x1="748" y1="88" x2="1064" y2="478" gradientUnits="userSpaceOnUse">
      <stop stop-color="#FAFDFD"/>
      <stop offset="0.6" stop-color="#F3FAFC"/>
      <stop offset="1" stop-color="#E9F4F8"/>
    </linearGradient>
    <linearGradient id="icon-core" x1="804" y1="166" x2="988" y2="374" gradientUnits="userSpaceOnUse">
      <stop stop-color="#39DCCE"/>
      <stop offset="0.5" stop-color="#12B5C9"/>
      <stop offset="1" stop-color="#2472D4"/>
    </linearGradient>
    <linearGradient id="icon-shine" x1="832" y1="178" x2="976" y2="280" gradientUnits="userSpaceOnUse">
      <stop stop-color="#FFFFFF" stop-opacity="0.58"/>
      <stop offset="1" stop-color="#FFFFFF" stop-opacity="0"/>
    </linearGradient>
    <filter id="card-shadow" x="-18%" y="-14%" width="136%" height="140%" color-interpolation-filters="sRGB">
      <feDropShadow dx="0" dy="24" stdDeviation="26" flood-color="#305A73" flood-opacity="0.16"/>
    </filter>
  </defs>
  <rect width="1200" height="630" fill="url(#page)"/>
  <path d="M96 126h430" stroke="#E5EEF2" stroke-width="2"/>
  <path d="M96 502h360" stroke="#E5EEF2" stroke-width="2"/>
  <text x="96" y="232" fill="#172033" font-family="Inter, Arial, sans-serif" font-size="84" font-weight="800">Vola</text>
  <text x="100" y="304" fill="#126C84" font-family="Inter, Arial, sans-serif" font-size="32" font-weight="700">Personal data hub for AI agents</text>
  <text x="100" y="370" fill="#526174" font-family="Inter, Arial, sans-serif" font-size="30">Profile, memory, projects, skills, and vault access in one place.</text>
  <g filter="url(#card-shadow)">
    <rect x="716" y="78" width="368" height="368" rx="88" fill="url(#icon-bg)" stroke="#D6E6EB" stroke-width="4"/>
    <rect x="798" y="160" width="204" height="204" rx="58" fill="url(#icon-core)"/>
    <path d="M830 216c34-24 106-24 140 0" fill="none" stroke="url(#icon-shine)" stroke-width="16" stroke-linecap="round"/>
    <path d="M844 210 900 320 956 210" fill="none" stroke="#FFFFFF" stroke-width="34" stroke-linecap="round" stroke-linejoin="round"/>
    <path d="M872 282c18 18 38 18 56 0" fill="none" stroke="#9DFFF5" stroke-width="10" stroke-linecap="round" opacity="0.54"/>
  </g>
</svg>
