<svg xmlns="http://www.w3.org/2000/svg" viewBox="0 0 180 180">
  <defs>
    <linearGradient id="bg" x1="22" y1="18" x2="160" y2="164" gradientUnits="userSpaceOnUse">
      <stop stop-color="#FFFFFF"/>
      <stop offset="0.6" stop-color="#F5FCFF"/>
      <stop offset="1" stop-color="#EAF4FF"/>
    </linearGradient>
    <radialGradient id="orb" cx="0" cy="0" r="1" gradientTransform="matrix(48 50 -50 48 74 64)">
      <stop stop-color="#BFFFF7"/>
      <stop offset="0.44" stop-color="#23D0C8"/>
      <stop offset="1" stop-color="#2870D2"/>
    </radialGradient>
    <linearGradient id="orbit" x1="40" y1="111" x2="142" y2="72" gradientUnits="userSpaceOnUse">
      <stop stop-color="#79EEE5"/>
      <stop offset="0.5" stop-color="#25BFE3"/>
      <stop offset="1" stop-color="#6477F1"/>
    </linearGradient>
    <filter id="shadow" x="-24%" y="-20%" width="148%" height="154%" color-interpolation-filters="sRGB">
      <feDropShadow dx="0" dy="12" stdDeviation="13" flood-color="#2F6D93" flood-opacity="0.2"/>
    </filter>
  </defs>
  <rect x="9" y="9" width="162" height="162" rx="39" fill="url(#bg)"/>
  <rect x="10" y="10" width="160" height="160" rx="38" fill="none" stroke="#DCEAF5" stroke-width="2"/>
  <g filter="url(#shadow)">
    <circle cx="90" cy="88" r="40" fill="url(#orb)"/>
    <path d="M67 63c12-9 35-9 47 1" stroke="#FFFFFF" stroke-width="7" stroke-linecap="round" opacity="0.48"/>
    <path d="M55 109c20 22 72 23 95-5" fill="none" stroke="url(#orbit)" stroke-width="8" stroke-linecap="round"/>
    <path d="M139 73c-15-20-67-23-95 3" fill="none" stroke="url(#orbit)" stroke-width="7" stroke-linecap="round" opacity="0.72"/>
    <path d="M69 88h42" stroke="#FFFFFF" stroke-width="8" stroke-linecap="round"/>
    <path d="M90 67v42" stroke="#D9FFF9" stroke-width="8" stroke-linecap="round" opacity="0.88"/>
    <circle cx="90" cy="88" r="9" fill="#0B7392" opacity="0.2"/>
  </g>
</svg>
