<svg xmlns="http://www.w3.org/2000/svg" viewBox="0 0 180 180">
  <defs>
    <linearGradient id="bg" x1="26" y1="16" x2="158" y2="166" gradientUnits="userSpaceOnUse">
      <stop stop-color="#FFFFFF"/>
      <stop offset="0.58" stop-color="#F4FBFF"/>
      <stop offset="1" stop-color="#E8F3FF"/>
    </linearGradient>
    <linearGradient id="core" x1="52" y1="52" x2="132" y2="132" gradientUnits="userSpaceOnUse">
      <stop stop-color="#5DEBE2"/>
      <stop offset="0.5" stop-color="#17BFD2"/>
      <stop offset="1" stop-color="#2B73D6"/>
    </linearGradient>
    <linearGradient id="face" x1="63" y1="45" x2="122" y2="96" gradientUnits="userSpaceOnUse">
      <stop stop-color="#F9FFFF" stop-opacity="0.95"/>
      <stop offset="0.5" stop-color="#DDFBFF" stop-opacity="0.82"/>
      <stop offset="1" stop-color="#A7E7F6" stop-opacity="0.56"/>
    </linearGradient>
    <linearGradient id="knot" x1="63" y1="76" x2="118" y2="116" gradientUnits="userSpaceOnUse">
      <stop stop-color="#FFFFFF"/>
      <stop offset="0.48" stop-color="#DFFFFB"/>
      <stop offset="1" stop-color="#9EFFF6"/>
    </linearGradient>
  </defs>
  <rect x="9" y="9" width="162" height="162" rx="39" fill="url(#bg)"/>
  <rect x="10" y="10" width="160" height="160" rx="38" fill="none" stroke="#DCEAF5" stroke-width="2"/>
  <path d="M52 76c0-13.3 10.7-24 24-24h28c13.3 0 24 10.7 24 24v30c0 13.3-10.7 24-24 24H76c-13.3 0-24-10.7-24-24V76Z" fill="url(#core)"/>
  <path d="M58 72c0-8.8 7.2-16 16-16h32c8.8 0 16 7.2 16 16v4c0 8.8-7.2 16-16 16H74c-8.8 0-16-7.2-16-16v-4Z" fill="url(#face)"/>
  <path d="M62 104c11 8.5 45 8.5 56 0" fill="none" stroke="#92FFF4" stroke-width="4" stroke-linecap="round" opacity="0.42"/>
  <g fill="none" stroke-linecap="round" stroke-linejoin="round">
    <path d="M90 72c-7 0-12 4.7-12 10.7 0 6.7 6.4 10.4 12 14.8 5.6-4.4 12-8.1 12-14.8C102 76.7 97 72 90 72Z" stroke="url(#knot)" stroke-width="6.2"/>
    <path d="M72 96c0-6.5 5.2-10.8 12-10.8 7.2 0 11.2 5.8 16 10.8-4.8 5-8.8 10.8-16 10.8-6.8 0-12-4.3-12-10.8Z" stroke="url(#knot)" stroke-width="6.2"/>
    <path d="M108 85.2c6.8 0 12 4.3 12 10.8s-5.2 10.8-12 10.8c-7.2 0-11.2-5.8-16-10.8 4.8-5 8.8-10.8 16-10.8Z" stroke="url(#knot)" stroke-width="6.2"/>
    <path d="M80 107 90 97l10 10-10 10-10-10Z" stroke="url(#knot)" stroke-width="6.2"/>
  </g>
  <g fill="none" stroke="#0B6F91" stroke-linecap="round" stroke-linejoin="round" opacity="0.22">
    <path d="M90 72c-7 0-12 4.7-12 10.7 0 6.7 6.4 10.4 12 14.8 5.6-4.4 12-8.1 12-14.8C102 76.7 97 72 90 72Z" stroke-width="2"/>
    <path d="M72 96c0-6.5 5.2-10.8 12-10.8 7.2 0 11.2 5.8 16 10.8-4.8 5-8.8 10.8-16 10.8-6.8 0-12-4.3-12-10.8Z" stroke-width="2"/>
    <path d="M108 85.2c6.8 0 12 4.3 12 10.8s-5.2 10.8-12 10.8c-7.2 0-11.2-5.8-16-10.8 4.8-5 8.8-10.8 16-10.8Z" stroke-width="2"/>
    <path d="M80 107 90 97l10 10-10 10-10-10Z" stroke-width="2"/>
  </g>
  <path d="M73 58h34" stroke="#FFFFFF" stroke-width="5" stroke-linecap="round" opacity="0.48"/>
</svg>
