<svg xmlns="http://www.w3.org/2000/svg" viewBox="0 0 1200 630">
  <defs>
    <linearGradient id="page" x1="0" y1="0" x2="1" y2="1">
      <stop stop-color="#F8FBFC"/>
      <stop offset="0.62" stop-color="#FFFFFF"/>
      <stop offset="1" stop-color="#F3FAF7"/>
    </linearGradient>
    <linearGradient id="bg" x1="760" y1="108" x2="1040" y2="498" gradientUnits="userSpaceOnUse">
      <stop stop-color="#FFFFFF"/>
      <stop offset="0.58" stop-color="#F4FBFF"/>
      <stop offset="1" stop-color="#E8F3FF"/>
    </linearGradient>
    <linearGradient id="core" x1="802" y1="192" x2="966" y2="356" gradientUnits="userSpaceOnUse">
      <stop stop-color="#5DEBE2"/>
      <stop offset="0.5" stop-color="#17BFD2"/>
      <stop offset="1" stop-color="#2B73D6"/>
    </linearGradient>
    <linearGradient id="face" x1="824" y1="176" x2="958" y2="296" gradientUnits="userSpaceOnUse">
      <stop stop-color="#F9FFFF" stop-opacity="0.95"/>
      <stop offset="0.5" stop-color="#DDFBFF" stop-opacity="0.82"/>
      <stop offset="1" stop-color="#A7E7F6" stop-opacity="0.56"/>
    </linearGradient>
    <linearGradient id="knot" x1="822" y1="228" x2="956" y2="326" gradientUnits="userSpaceOnUse">
      <stop stop-color="#FFFFFF"/>
      <stop offset="0.48" stop-color="#DFFFFB"/>
      <stop offset="1" stop-color="#9EFFF6"/>
    </linearGradient>
    <filter id="soft" x="-20%" y="-15%" width="140%" height="140%" color-interpolation-filters="sRGB">
      <feDropShadow dx="0" dy="22" stdDeviation="24" flood-color="#376A8E" flood-opacity="0.18"/>
    </filter>
  </defs>
  <rect width="1200" height="630" fill="url(#page)"/>
  <path d="M0 520h1200" stroke="#D9E4E5" stroke-width="2"/>
  <path d="M96 118h430" stroke="#E7EEF2" stroke-width="2"/>
  <path d="M96 508h360" stroke="#E7EEF2" stroke-width="2"/>
  <text x="96" y="228" fill="#172033" font-family="Inter, Arial, sans-serif" font-size="78" font-weight="800">xlzDrive</text>
  <text x="100" y="292" fill="#126C84" font-family="Inter, Arial, sans-serif" font-size="30" font-weight="700">AI 工作数据中枢</text>
  <text x="100" y="358" fill="#526174" font-family="Inter, Arial, sans-serif" font-size="31">Profile · Memory · Projects · Skills · Backup</text>
  <text x="100" y="410" fill="#6C7787" font-family="Inter, Arial, sans-serif" font-size="24">让本地与云端 AI 工具共享同一份个人工作资料。</text>
  <g filter="url(#soft)">
    <rect x="716" y="78" width="368" height="368" rx="88" fill="url(#bg)" stroke="#DCEAF5" stroke-width="4"/>
    <path d="M802 228c0-28 22-50 50-50h58c28 0 50 22 50 50v64c0 28-22 50-50 50h-58c-28 0-50-22-50-50v-64Z" fill="url(#core)"/>
    <path d="M816 218c0-18 15-33 33-33h64c18 0 33 15 33 33v9c0 18-15 33-33 33h-64c-18 0-33-15-33-33v-9Z" fill="url(#face)"/>
    <path d="M823 289c24 18 92 18 116 0" fill="none" stroke="#92FFF4" stroke-width="8" stroke-linecap="round" opacity="0.42"/>
    <g fill="none" stroke-linecap="round" stroke-linejoin="round">
      <path d="M881 202c-15 0-25 10-25 22 0 14 13 22 25 31 12-9 25-17 25-31 0-12-10-22-25-22Z" stroke="#0B6F91" stroke-width="18" opacity="0.16"/>
      <path d="M843 251c0-14 11-23 25-23 15 0 23 12 33 23-10 10-18 22-33 22-14 0-25-9-25-22Z" stroke="#0B6F91" stroke-width="18" opacity="0.16"/>
      <path d="M918 228c14 0 25 9 25 23s-11 22-25 22c-15 0-23-12-33-22 10-11 18-23 33-23Z" stroke="#0B6F91" stroke-width="18" opacity="0.16"/>
      <path d="M860 274 881 253l21 21-21 21-21-21Z" stroke="#0B6F91" stroke-width="18" opacity="0.16"/>
      <path d="M881 202c-15 0-25 10-25 22 0 14 13 22 25 31 12-9 25-17 25-31 0-12-10-22-25-22Z" stroke="url(#knot)" stroke-width="13"/>
      <path d="M843 251c0-14 11-23 25-23 15 0 23 12 33 23-10 10-18 22-33 22-14 0-25-9-25-22Z" stroke="url(#knot)" stroke-width="13"/>
      <path d="M918 228c14 0 25 9 25 23s-11 22-25 22c-15 0-23-12-33-22 10-11 18-23 33-23Z" stroke="url(#knot)" stroke-width="13"/>
      <path d="M860 274 881 253l21 21-21 21-21-21Z" stroke="url(#knot)" stroke-width="13"/>
    </g>
    <path d="M846 190h70" stroke="#FFFFFF" stroke-width="10" stroke-linecap="round" opacity="0.48"/>
  </g>
</svg>
